<svg width="22" height="22" viewBox="0 0 22 22" fill="none" xmlns="http://www.w3.org/2000/svg">
<path d="M20.8541 22H13.7958C13.4291 22 13.1083 21.6791 13.1083 21.3125V15.675C13.1083 14.4833 12.1458 13.5666 10.9999 13.5666C9.85409 13.5666 8.89159 14.5291 8.89159 15.675V21.3125C8.89159 21.6791 8.57075 22 8.20409 22H1.14575C0.779085 22 0.458252 21.6791 0.458252 21.3125V10.5416C0.458252 10.3583 0.549919 10.175 0.641585 10.0375L10.4958 0.183301C10.7708 -0.0916992 11.2291 -0.0916992 11.4583 0.183301L21.3124 10.0375C21.4499 10.175 21.4958 10.3583 21.4958 10.5416V21.3125C21.5416 21.6791 21.2208 22 20.8541 22Z" fill="#262626"/>
</svg>
