<svg width="13" height="12" viewBox="0 0 13 12" fill="none" xmlns="http://www.w3.org/2000/svg">
<g clip-path="url(#clip0_1_2617)">
<path d="M6.5 0C3.2 0 0.5 2.7 0.5 6C0.5 9.3 3.2 12 6.5 12C9.8 12 12.5 9.3 12.5 6C12.5 2.7 9.8 0 6.5 0ZM6.5 11.25C3.6 11.25 1.25 8.9 1.25 6C1.25 3.1 3.6 0.75 6.5 0.75C9.4 0.75 11.75 3.1 11.75 6C11.75 8.9 9.4 11.25 6.5 11.25ZM9 5.35L5.6 3.4C5.35 3.25 5.1 3.25 4.85 3.4C4.65 3.55 4.5 3.75 4.5 4.05V7.95C4.5 8.2 4.65 8.45 4.9 8.6C5 8.65 5.15 8.7 5.3 8.7C5.45 8.7 5.55 8.65 5.7 8.6L9.1 6.65C9.35 6.5 9.5 6.25 9.5 6C9.5 5.75 9.25 5.5 9 5.35ZM5.25 7.95V4.05L8.65 6L5.25 7.95Z" fill="#8E8E8E"/>
</g>
<defs>
<clipPath id="clip0_1_2617">
<rect width="12" height="12" fill="white" transform="translate(0.5)"/>
</clipPath>
</defs>
</svg>
