<svg width="13" height="12" viewBox="0 0 13 12" fill="none" xmlns="http://www.w3.org/2000/svg">
<g clip-path="url(#clip0_1_2608)">
<path d="M8.375 7.05L5.575 5.425C5.45 5.35 5.325 5.35 5.2 5.425C5.075 5.475 5 5.6 5 5.75V9C5 9.125 5.075 9.25 5.2 9.325C5.25 9.35 5.325 9.375 5.375 9.375C5.45 9.375 5.5 9.35 5.575 9.325L8.375 7.7C8.5 7.625 8.55 7.5 8.55 7.375C8.55 7.25 8.475 7.125 8.375 7.05ZM11.475 1C10.85 0.4 10.1 0 8.425 0H4.55C2.9 0 2.15 0.4 1.5 1.025C0.9 1.65 0.5 2.4 0.5 4.05V7.925C0.5 9.575 0.9 10.35 1.525 10.975C2.15 11.575 2.9 11.975 4.575 11.975H8.45C10.1 11.975 10.875 11.575 11.5 10.95C12.1 10.325 12.5 9.575 12.5 7.9V4.05C12.5 2.4 12.1 1.65 11.475 1ZM8.45 0.75C10.025 0.75 10.55 1.15 10.95 1.55C11.25 1.85 11.525 2.225 11.675 3H9.35L8.075 0.75H8.45ZM4.55 0.75H7.175L8.45 3H5.45L4.175 0.75H4.55ZM2.05 1.55C2.325 1.275 2.675 1 3.375 0.85L4.6 3H1.325C1.475 2.225 1.75 1.85 2.05 1.55ZM11.75 7.95C11.75 9.525 11.35 10.05 10.95 10.45C10.55 10.85 10 11.25 8.45 11.25H4.55C2.975 11.25 2.45 10.85 2.05 10.45C1.65 10.05 1.25 9.5 1.25 7.95V3.75H11.75V7.95Z" fill="#8E8E8E"/>
</g>
<defs>
<clipPath id="clip0_1_2608">
<rect width="12" height="12" fill="white" transform="translate(0.5)"/>
</clipPath>
</defs>
</svg>
