<svg width="13" height="12" viewBox="0 0 13 12" fill="none" xmlns="http://www.w3.org/2000/svg">
<g clip-path="url(#clip0_1_2588)">
<path fill-rule="evenodd" clip-rule="evenodd" d="M11.75 0.375H1.25C1.05 0.375 0.875 0.55 0.875 0.75V11.25C0.875 11.45 1.05 11.625 1.25 11.625H11.75C11.95 11.625 12.125 11.45 12.125 11.25V0.75C12.125 0.55 11.95 0.375 11.75 0.375ZM1.625 1.125H4.375V3.875H1.625V1.125ZM1.625 4.625H4.375V7.375H1.625V4.625ZM4.375 10.875H1.625V8.125H4.375V10.875ZM7.875 10.875H5.125V8.125H7.875V10.875ZM7.875 7.375H5.125V4.625H7.875V7.375ZM7.875 3.875H5.125V1.125H7.875V3.875ZM11.375 10.875H8.625V8.125H11.375V10.875ZM11.375 7.375H8.625V4.625H11.375V7.375ZM11.375 3.875H8.625V1.125H11.375V3.875Z" fill="#262626"/>
</g>
<defs>
<clipPath id="clip0_1_2588">
<rect width="12" height="12" fill="white" transform="translate(0.5)"/>
</clipPath>
</defs>
</svg>
