<svg width="13" height="12" viewBox="0 0 13 12" fill="none" xmlns="http://www.w3.org/2000/svg">
<g clip-path="url(#clip0_1_2597)">
<path d="M6.5 12H6.425L0.8 10.75C0.625 10.7 0.5 10.55 0.5 10.375V0.374976C0.5 0.249976 0.55 0.149976 0.65 0.0749756C0.75 -2.44156e-05 0.85 -0.0250244 0.95 -2.44137e-05L6.575 1.24998C6.75 1.29998 6.875 1.44998 6.875 1.62498V11.625C6.875 11.75 6.825 11.85 6.725 11.925C6.675 11.975 6.575 12 6.5 12ZM1.25 10.075L6.125 11.15V1.92498L1.25 0.849976V10.075Z" fill="#8E8E8E"/>
<path d="M6.5 12C6.425 12 6.325 11.975 6.275 11.925C6.175 11.85 6.125 11.75 6.125 11.625V1.62498C6.125 1.44998 6.25 1.29998 6.425 1.24998L12.05 -2.44137e-05C12.15 -0.0250244 12.275 -2.44156e-05 12.375 0.0749756C12.45 0.149976 12.5 0.249976 12.5 0.374976V10.375C12.5 10.55 12.375 10.7 12.2 10.75L6.575 12H6.5ZM6.875 1.92498V11.15L11.75 10.075V0.849976L6.875 1.92498Z" fill="#8E8E8E"/>
<path d="M8.125 9.70003C7.95 9.70003 7.8 9.57502 7.75 9.40002C7.7 9.20002 7.825 9.00002 8.025 8.95003L10.4 8.42503C10.6 8.37503 10.8 8.50002 10.85 8.70003C10.9 8.90002 10.775 9.10002 10.575 9.15002L8.2 9.67503C8.175 9.70003 8.15 9.70003 8.125 9.70003ZM4.875 9.70003H4.8L2.425 9.17503C2.225 9.12503 2.1 8.92503 2.15 8.72503C2.2 8.52503 2.4 8.40002 2.6 8.45003L4.975 8.97503C5.175 9.02503 5.3 9.22503 5.25 9.42503C5.2 9.57503 5.05 9.70003 4.875 9.70003ZM4.875 6.20002H4.8L2.425 5.67503C2.25 5.62503 2.125 5.47503 2.125 5.30003V2.67502C2.125 2.55002 2.175 2.45002 2.275 2.37502C2.375 2.30002 2.475 2.27502 2.6 2.30002L4.975 2.82502C5.15 2.87502 5.275 3.02502 5.275 3.20002V5.82502C5.275 5.95002 5.225 6.05002 5.125 6.12503C5.05 6.17502 4.95 6.20002 4.875 6.20002ZM2.875 5.00002L4.5 5.35002V3.50002L2.875 3.15002V5.00002ZM8.125 6.20002C8.05 6.20002 7.95 6.17502 7.9 6.12503C7.8 6.05002 7.75 5.95002 7.75 5.82502V3.20002C7.75 3.02502 7.875 2.87502 8.05 2.82502L10.425 2.30002C10.525 2.27502 10.65 2.30002 10.75 2.37502C10.85 2.45002 10.9 2.55002 10.9 2.67502V5.30003C10.9 5.47503 10.775 5.62503 10.6 5.67503L8.225 6.20002H8.125ZM8.5 3.50002V5.35002L10.125 5.00002V3.15002L8.5 3.50002ZM8.125 8.20002C7.95 8.20002 7.8 8.07503 7.75 7.90002C7.7 7.70003 7.825 7.50002 8.025 7.45002L10.4 6.92502C10.6 6.87503 10.8 7.00002 10.85 7.20002C10.9 7.40002 10.775 7.60003 10.575 7.65002L8.2 8.17502C8.175 8.20003 8.15 8.20002 8.125 8.20002Z" fill="#8E8E8E"/>
</g>
<defs>
<clipPath id="clip0_1_2597">
<rect width="12" height="12" fill="white" transform="translate(0.5)"/>
</clipPath>
</defs>
</svg>
