<svg width="13" height="12" viewBox="0 0 13 12" fill="none" xmlns="http://www.w3.org/2000/svg">
<g clip-path="url(#clip0_1_2626)">
<path d="M10.875 1.37505H8.1C7.975 1.37505 7.85 1.32505 7.75 1.22505L6.75 0.225049C6.6 0.0750488 6.375 0.0750488 6.225 0.225049L5.225 1.22505C5.125 1.32505 5 1.37505 4.875 1.37505H2.125C1.3 1.37505 0.625 2.05005 0.625 2.87505V10.375C0.625 11.2 1.3 11.875 2.125 11.875H10.875C11.7 11.875 12.375 11.2 12.375 10.375V2.87505C12.375 2.05005 11.7 1.37505 10.875 1.37505ZM3.525 11.125C3.375 11.125 3.25 10.975 3.275 10.825C3.45 10.025 4.15 9.42505 4.975 9.42505H7.975C8.825 9.42505 9.525 10.025 9.675 10.825C9.7 10.975 9.575 11.125 9.425 11.125H3.525ZM11.625 10.375C11.625 10.8 11.3 11.125 10.875 11.125H10.725C10.6 11.125 10.5 11.025 10.475 10.9C10.325 9.65005 9.275 8.67505 8 8.67505H5C3.725 8.67505 2.65 9.65005 2.525 10.9C2.5 11.025 2.4 11.125 2.275 11.125H2.125C1.7 11.125 1.375 10.8 1.375 10.375V2.87505C1.375 2.45005 1.7 2.12505 2.125 2.12505H4.9C5.225 2.12505 5.55 2.00005 5.775 1.75005L6.5 1.02505L7.225 1.75005C7.45 1.97505 7.775 2.12505 8.1 2.12505H10.875C11.3 2.12505 11.625 2.45005 11.625 2.87505V10.375ZM6.5 3.12505C5.175 3.12505 4.1 4.20005 4.1 5.52505C4.1 6.85005 5.175 7.92505 6.5 7.92505C7.825 7.92505 8.9 6.85005 8.9 5.52505C8.9 4.20005 7.825 3.12505 6.5 3.12505ZM6.5 7.15005C5.6 7.15005 4.85 6.42505 4.85 5.50005C4.85 4.60005 5.575 3.85005 6.5 3.85005C7.425 3.85005 8.15 4.57505 8.15 5.50005C8.15 6.40005 7.4 7.15005 6.5 7.15005Z" fill="#8E8E8E"/>
</g>
<defs>
<clipPath id="clip0_1_2626">
<rect width="12" height="12" fill="white" transform="translate(0.5)"/>
</clipPath>
</defs>
</svg>
