<svg width="22" height="22" viewBox="0 0 22 22" fill="none" xmlns="http://www.w3.org/2000/svg">
<g clip-path="url(#clip0_1_2455)">
<path d="M15.8583 2.7959C18.4708 2.7959 20.625 5.17923 20.625 8.06673C20.625 11.1834 17.9208 13.1084 15.3542 15.4001C12.7875 17.6917 11.4583 18.9292 11 19.2042C10.4958 18.8834 8.84583 17.3709 6.64583 15.4001C4.03333 13.1084 1.375 11.1834 1.375 8.06673C1.375 5.17923 3.52917 2.7959 6.14167 2.7959C8.06667 2.7959 9.12083 3.71256 9.85417 4.76673C10.725 5.9584 10.8625 6.55423 11 6.55423C11.1375 6.55423 11.275 5.9584 12.1458 4.76673C12.8792 3.71256 13.9333 2.7959 15.8583 2.7959ZM15.8583 1.4209C13.7958 1.4209 12.2375 2.2459 11 3.98757C9.7625 2.29173 8.20417 1.46673 6.14167 1.46673C2.75 1.4209 0 4.40007 0 8.06673C0 11.4126 2.475 13.5667 4.85833 15.6292C5.13333 15.8584 5.45417 16.1334 5.72917 16.4084L6.78333 17.3251C8.8 19.1126 9.80833 20.0292 10.2667 20.3042C10.4958 20.4417 10.7708 20.5334 11 20.5334C11.275 20.5334 11.5042 20.4417 11.7333 20.3042C12.1917 20.0292 13.0167 19.2959 15.3083 17.1876L16.225 16.3626C16.5458 16.0876 16.8208 15.8126 17.1417 15.5834C19.5708 13.5667 22 11.4584 22 8.06673C22 4.40007 19.25 1.4209 15.8583 1.4209Z" fill="#262626"/>
</g>
<defs>
<clipPath id="clip0_1_2455">
<rect width="22" height="22" fill="white"/>
</clipPath>
</defs>
</svg>
