<svg width="40" height="40" viewBox="0 0 40 40" fill="none" xmlns="http://www.w3.org/2000/svg">
<path d="M20 21.5C20.8284 21.5 21.5 20.8284 21.5 20C21.5 19.1716 20.8284 18.5 20 18.5C19.1716 18.5 18.5 19.1716 18.5 20C18.5 20.8284 19.1716 21.5 20 21.5Z" fill="#262626"/>
<path d="M14.5 21.5C15.3284 21.5 16 20.8284 16 20C16 19.1716 15.3284 18.5 14.5 18.5C13.6716 18.5 13 19.1716 13 20C13 20.8284 13.6716 21.5 14.5 21.5Z" fill="#262626"/>
<path d="M25.5 21.5C26.3284 21.5 27 20.8284 27 20C27 19.1716 26.3284 18.5 25.5 18.5C24.6716 18.5 24 19.1716 24 20C24 20.8284 24.6716 21.5 25.5 21.5Z" fill="#262626"/>
</svg>
